<svg width="31" height="30" viewBox="0 0 31 30" fill="none" xmlns="http://www.w3.org/2000/svg">
<path fill-rule="evenodd" clip-rule="evenodd" d="M27.8272 14.5669L27.036 24.0614C26.874 26.005 25.2493 27.5 23.2989 27.5H7.69993C5.7496 27.5 4.12485 26.005 3.96288 24.0614L3.17168 14.5669C3.0645 13.2808 3.62623 12.0299 4.65872 11.2555L13.2494 4.8125C14.5828 3.8125 16.4161 3.8125 17.7494 4.8125L26.3401 11.2555C27.3726 12.0299 27.9344 13.2808 27.8272 14.5669ZM12.9995 25.625L12.634 21.2392C12.4943 19.5628 13.8172 18.125 15.4995 18.125C17.1817 18.125 18.5047 19.5628 18.365 21.2392L17.9995 25.625H12.9995Z" fill="white"/>
</svg>
