<svg width="23" height="22" viewBox="0 0 23 22" fill="none" xmlns="http://www.w3.org/2000/svg">
<path fill-rule="evenodd" clip-rule="evenodd" d="M4.16675 17.2443V4.58334C4.16675 3.06456 5.39797 1.83334 6.91675 1.83334H16.0834C17.6022 1.83334 18.8334 3.06456 18.8334 4.58334V17.2443C18.8334 19.0081 16.9773 20.1553 15.3997 19.3665C15.2449 19.2891 15.082 19.2288 14.9141 19.1868L12.1671 18.5001C11.7291 18.3906 11.271 18.3906 10.8331 18.5001L8.08609 19.1868C7.91814 19.2288 7.7553 19.2891 7.60046 19.3665C6.02289 20.1553 4.16675 19.0081 4.16675 17.2443ZM7.83341 5.50001C7.32715 5.50001 6.91675 5.91042 6.91675 6.41668C6.91675 6.92294 7.32715 7.33334 7.83341 7.33334H15.1667C15.673 7.33334 16.0834 6.92294 16.0834 6.41668C16.0834 5.91042 15.673 5.50001 15.1667 5.50001H7.83341ZM6.91675 11C6.91675 10.4937 7.32715 10.0833 7.83341 10.0833H15.1667C15.673 10.0833 16.0834 10.4937 16.0834 11C16.0834 11.5063 15.673 11.9167 15.1667 11.9167H7.83341C7.32715 11.9167 6.91675 11.5063 6.91675 11ZM7.83341 14.6667C7.32715 14.6667 6.91675 15.0771 6.91675 15.5833C6.91675 16.0896 7.32715 16.5 7.83341 16.5H10.2779C10.7841 16.5 11.1945 16.0896 11.1945 15.5833C11.1945 15.0771 10.7841 14.6667 10.2779 14.6667H7.83341ZM12.7223 14.6667C12.216 14.6667 11.8056 15.0771 11.8056 15.5833C11.8056 16.0896 12.216 16.5 12.7223 16.5H15.1667C15.673 16.5 16.0834 16.0896 16.0834 15.5833C16.0834 15.0771 15.673 14.6667 15.1667 14.6667H12.7223Z" fill="white"/>
</svg>
