<svg width="16" height="16" viewBox="0 0 16 16" fill="none" xmlns="http://www.w3.org/2000/svg">
<path d="M8.06873 5.128L7.7554 6.068C7.54873 6.68933 7.44473 6.99933 7.22207 7.222C6.9994 7.44467 6.68873 7.54867 6.06873 7.75533L5.12873 8.06867C3.5594 8.59133 2.7754 8.85266 2.7754 9.33333C2.7754 9.81333 3.5594 10.0753 5.12873 10.598L10.8034 12.49C11.9074 12.858 12.4594 13.042 12.7507 12.7507C13.0421 12.4593 12.8581 11.9073 12.4907 10.804L10.5974 5.12733C10.0754 3.56 9.81407 2.77467 9.3334 2.77467C8.8534 2.77467 8.5914 3.55933 8.06873 5.128Z" fill="black" fill-opacity="0.25"/>
<path d="M8.06873 5.128L7.7554 6.068C7.54873 6.68933 7.44473 6.99933 7.22207 7.222C6.9994 7.44467 6.68873 7.54867 6.06873 7.75533L5.12873 8.06867C3.5594 8.59133 2.7754 8.85266 2.7754 9.33333C2.7754 9.81333 3.5594 10.0753 5.12873 10.598L10.8034 12.49C11.9074 12.858 12.4594 13.042 12.7507 12.7507C13.0421 12.4593 12.8581 11.9073 12.4907 10.804L10.5974 5.12733C10.0754 3.56 9.81407 2.77467 9.3334 2.77467C8.8534 2.77467 8.5914 3.55933 8.06873 5.128Z" fill="#A60B09"/>
<path d="M6.77195 6.35067L7.22995 4.976C7.26201 4.87981 7.27171 4.77757 7.25831 4.67706C7.24491 4.57656 7.20876 4.48043 7.15261 4.396L6.66861 3.66933C6.6113 3.58331 6.53023 3.5158 6.43526 3.475C6.34028 3.43421 6.2355 3.42189 6.13366 3.43955C6.03182 3.45721 5.9373 3.50408 5.8616 3.57446C5.7859 3.64484 5.73229 3.73571 5.70728 3.836L5.38195 5.13933C5.3673 5.19798 5.33699 5.25155 5.29424 5.29429C5.2515 5.33704 5.19793 5.36736 5.13928 5.382L3.83595 5.70733C3.73565 5.73234 3.64479 5.78596 3.57441 5.86165C3.50402 5.93735 3.45715 6.03187 3.43949 6.13371C3.42184 6.23556 3.43416 6.34034 3.47495 6.43531C3.51575 6.53028 3.58326 6.61136 3.66928 6.66867L4.39595 7.15267C4.48038 7.20881 4.5765 7.24496 4.67701 7.25837C4.77751 7.27177 4.87975 7.26207 4.97595 7.23L6.35061 6.772C6.44871 6.73926 6.53784 6.68415 6.61097 6.61102C6.6841 6.5379 6.73921 6.44876 6.77195 6.35067Z" fill="#A60B09"/>
</svg>
