<svg width="23" height="22" viewBox="0 0 23 22" fill="none" xmlns="http://www.w3.org/2000/svg">
<path d="M17 18.3333H6C4.48122 18.3333 3.25 17.1021 3.25 15.5833V5.70602C3.25 4.57971 4.16306 3.66666 5.28937 3.66666H11.5126C11.9494 3.66666 12.3105 4.34528 12.6589 5.08749H6C5.49374 5.08749 5.08333 5.4979 5.08333 6.00416C5.08333 6.51042 5.49374 6.92082 6 6.92082H13.7816L13.7917 6.92592H17.0009C18.5197 6.92592 19.75 8.15713 19.75 9.67592V10.0833H17.9167C16.3979 10.0833 15.1667 11.3145 15.1667 12.8333C15.1667 14.3521 16.3979 15.5833 17.9167 15.5833H19.75C19.75 17.1021 18.5188 18.3333 17 18.3333Z" fill="white"/>
<path d="M19.75 13.75V11.9167H17.9167C17.4104 11.9167 17 12.3271 17 12.8333C17 13.3396 17.4104 13.75 17.9167 13.75H19.75Z" fill="white"/>
</svg>
